<?xml version="1.0" encoding="UTF-8" standalone="yes"?><svg xmlns="http://www.w3.org/2000/svg" xmlns:xlink="http://www.w3.org/1999/xlink" version="1.2" baseProfile="tiny" x="0" y="0" width="256" height="256" viewBox="0 0 256 256"><defs/><g transform="matrix(1,0,0,1,-8e-08,-8e-08)"><g transform="matrix(0.295417,0,0,0.295417,-23.3379,-23.3379)"><g id="价格优势" fill="none" fill-rule="evenodd" stroke="none" stroke-width="1"><g id="编组-2" stroke="#2ec6b5" stroke-width="70" transform="matrix(1,0,0,1,79,79)"><circle id="椭圆形" fill="#cdf5f0" cx="433.287" cy="433.287" r="398.287"/><g id="编组" stroke-linejoin="round" stroke-linecap="round" transform="matrix(1,0,0,1,333,287.4)"><polyline id="直线" transform="matrix(0.707107,-0.707107,0.707107,0.707107,-14.0385,58.7514)" points="63.9,-13 63.9,32.7166 63.9,105.643"/><polyline id="直线备份-2" transform="matrix(0.707107,0.707107,-0.707107,0.707107,80.1738,-100.913)" points="161.9,-13 161.9,32.7166 161.9,105.643"/><polyline id="直线备份-3" transform="matrix(0,1,-1,0,237.1,21.1)" points="108,21.3 108,104.377 108,236.9"/><polyline id="直线备份-4" transform="matrix(0,1,-1,0,340,124)" points="108,124.2 108,207.277 108,339.8"/><polyline id="直线备份-5" transform="matrix(-1,-1.22465e-16,1.22465e-16,-1,223.38,438.059)" points="111.69,111.229 111.69,194.306 111.69,326.829"/></g></g></g></g></g></svg>
