<?xml version="1.0" encoding="UTF-8" standalone="yes"?><svg id="图层_1" xmlns="http://www.w3.org/2000/svg" xmlns:xlink="http://www.w3.org/1999/xlink" version="1.2" baseProfile="tiny" x="0" y="0" width="256" height="256" viewBox="0 0 256 256"><defs/><g transform="matrix(0.258117,0,0,0.258117,-4.14277,-4.07824)"><g id="图层_8"><path fill="#484848" d="M 600.5 616.2 L 517.7 692.9 L 435 616.3 C 435 616.3 234.2 522.8 276 240.8 C 302.5 62.3 433.8 16.1 512.7 15.8 C 591.6 16 723 62.3 749.4 240.6 C 791.3 522.9 600.5 616.2 600.5 616.2 Z"/><path fill="#74797d" d="M 517.8 70.3 C 521.8 70.5 524.1 70.9 524.1 70.9 C 524.1 70.9 689.2 42.8 737.7 326.5 C 746.8 328.1 755.7 322.7 758.6 313.9 C 758.6 313.9 739.9 43.4 524 43.4 C 521.9 43.4 519.8 43.5 517.7 43.5 L 517.8 70.3 Z"/><path fill="#fbdbb7" d="M 745.1 351.1 C 758.4 355.6 762.4 380 753.7 405.6 C 745.1 431.2 727.2 448.3 713.9 443.7 C 700.6 439.2 696.6 414.8 705.3 389.2 C 713.9 363.6 731.7 346.6 745.1 351.1 Z"/><path fill="#f1d1af" d="M 287.7 350.1 C 274.4 354.7 270.4 379.4 279.1 405.4 C 287.7 431.3 305.6 448.7 318.9 444.1 C 332.2 439.5 336.2 414.8 327.5 388.8 C 319 362.7 301.1 345.5 287.7 350.1 Z"/><path fill="#3a5c79" d="M 512.2 1007.5 L 818.9 1007.5 C 818.9 1007.5 803.7 793 594.2 759.7 C 537.1 755.6 512.1 757.1 512.1 757.1 L 512.1 757.3 C 512.2 935.3 512.2 1007.5 512.2 1007.5 Z"/><path fill="#273e52" d="M 510.9 1007.5 L 205.5 1007.5 C 205.5 1007.5 220.7 792.8 429.2 759.3 C 485.9 755.2 510.9 756.7 510.9 756.7 L 510.9 1007.5 Z"/><rect fill="#fbdbb7" x="435" y="620.3" width="162.7" height="301.9"/><path fill="#e2c3a3" d="M 435 622 L 597.7 622 L 597.7 672.6 L 435 771.3 L 435 622 Z"/><path fill="#ffffff" d="M 511.9 1007.3 C 511.9 1007.3 546.9 1007.5 563.5 1007.5 C 570.3 996.4 650.9 778.7 650.2 775.3 C 649.9 773.2 544.6 795.7 544.6 795.7 L 512 772.9 L 511.9 1007.3 Z"/><path fill="#3a5c79" d="M 540.5 972.2 C 540.5 972.2 542.7 998.8 560 974.3 C 577.3 950 518.7 841.9 518.7 841.9 L 540.5 972.2 Z"/><path fill="#e0e9f7" d="M 519.6 1007.3 C 519.6 1007.3 484.6 1007.5 468 1007.5 C 461.2 996.4 380.6 779.1 381.3 775.6 C 381.6 773.5 489.4 795.4 489.4 795.4 L 519.6 777 L 519.6 1007.3 Z"/><path fill="#ffffff" d="M 602.3 719.1 L 657.4 764.3 C 657.4 764.3 658.5 892.2 657.4 887.4 C 656.3 882.6 517.1 776.8 517.1 776.8 L 602.3 719.1 Z"/><path fill="#273e52" d="M 521.5 841.9 C 521.5 841.9 463 950 480.2 974.3 C 497.5 998.6 499.7 972.2 499.7 972.2 L 521.5 841.9 Z"/><path fill="#ffffff" d="M 431.8 719.1 L 376.5 764.4 C 376.5 764.4 375.4 892.5 376.5 887.6 C 377.6 882.8 517.3 776.9 517.3 776.9 L 431.8 719.1 Z"/><path fill="#3a5c79" d="M 517 853.6 C 517 853.6 596.7 922.9 597.5 877.7 L 597.5 799.4 C 597.5 799.4 590.8 778 560.9 799.4 C 519.3 827.8 517.1 829.6 517.1 829.6 L 517.1 853.6 L 517 853.6 Z"/><path fill="#273e52" d="M 520.5 853.6 C 520.5 853.6 440.8 923.3 440 877.8 L 440 798.9 C 440 798.9 446.7 777.4 476.6 798.9 C 518.2 827.5 520.4 829.3 520.4 829.3 L 520.5 853.6 Z"/><path fill="#e0e9f7" d="M 287.3 828.6 L 287.3 1007.6 L 203 1007.6 C 203 1007.5 211.2 904.7 287.3 828.6 M 820.9 1007.5 L 736.6 1007.5 L 736.6 828.5 C 812.7 904.7 820.9 1007.5 820.9 1007.5"/><path fill="#f1d1af" d="M 337.9 535.8 C 373.5 608.9 487.5 656.6 515.2 657.9 L 515.2 161.2 C 396.1 161.2 309.5 272.5 309.5 409.9 C 309.4 453.5 319.1 496.5 337.9 535.8 Z"/><path fill="#fbdbb7" d="M 692.1 535.8 C 656.2 608.8 540.9 656.5 512.8 657.8 L 512.8 161.2 C 633.2 161.2 720.8 272.5 720.8 409.9 C 721.1 453.5 711.3 496.6 692.1 535.8 Z"/><path fill="#484848" d="M 592.9 141.2 C 592.9 141.2 488.4 290 312 356.8 C 288.4 314 277.9 265.1 281.9 216.4 C 282 216.4 435.1 84.8 592.9 141.2 Z"/><g><g><g><path fill="#90959b" d="M 607.8 571.7 C 607.8 571.7 708.6 522.6 734.1 461.4 C 751 465 746.4 475 746.4 475 C 746.4 475 709 533.8 614 586 C 577.3 596.9 607.8 571.7 607.8 571.7 Z"/><path fill="#484848" d="M 754 312.2 C 713.3 307 717.6 354.7 712.1 410.5 C 706.6 466.3 693.6 509.3 734.3 514.4 C 775 519.6 812.5 478.4 818 422.4 C 823.5 366.7 794.9 317.2 754 312.2 Z"/></g></g></g><path fill="#333333" d="M 273.8 312.2 C 314.5 307 310.2 354.7 315.7 410.5 C 321.2 466.3 334.2 509.3 293.5 514.4 C 252.8 519.6 215.3 478.4 210 422.4 C 204.5 366.7 233.1 317.2 273.8 312.2 Z"/><path fill="#484848" d="M 572.9 552.4 C 595.3 547.8 616.3 557.9 619.7 574.9 C 623.2 591.8 607.8 609.3 585.4 613.8 C 563 618.3 542 608.3 538.6 591.3 C 535.2 574.3 550.6 556.9 572.9 552.4 Z"/><path fill="#5f6366" d="M 517.8 70.3 C 513.8 70.5 511.5 70.9 511.5 70.9 C 511.5 70.9 346.4 42.7 297.9 326.4 C 288.8 328 279.9 322.6 277 313.8 C 277 313.8 295.6 43.3 511.5 43.3 C 513.6 43.3 515.7 43.4 517.8 43.4 L 517.8 70.3 Z"/></g></g></svg>
