<?xml version="1.0" encoding="UTF-8" standalone="yes"?><svg id="图层_1" xmlns="http://www.w3.org/2000/svg" xmlns:xlink="http://www.w3.org/1999/xlink" version="1.2" baseProfile="tiny" x="0" y="0" width="256" height="256" viewBox="0 0 256 256"><defs><linearGradient id="SVGID_31_" x1="446.552" y1="241.518" x2="435.886" y2="555.518" spreadMethod="pad" gradientUnits="userSpaceOnUse"><stop offset="0.00558659" stop-color="#1732a5" stop-opacity="1"/><stop offset="0.9944" stop-color="#196fde" stop-opacity="1"/></linearGradient><linearGradient id="SVGID_42_" x1="405.701" y1="711.526" x2="459.08" y2="711.526" spreadMethod="pad" gradientUnits="userSpaceOnUse"><stop offset="0" stop-color="#76dcff" stop-opacity="1"/><stop offset="0.9944" stop-color="#94ebff" stop-opacity="1"/></linearGradient><linearGradient id="SVGID_49_" x1="729.942" y1="664.509" x2="732.26" y2="737.308" spreadMethod="pad" gradientUnits="userSpaceOnUse"><stop offset="0.00558659" stop-color="#1732a5" stop-opacity="1"/><stop offset="0.9944" stop-color="#196fde" stop-opacity="1"/></linearGradient><linearGradient id="SVGID_32_" x1="440.407" y1="436.796" x2="558.535" y2="370.214" spreadMethod="pad" gradientUnits="userSpaceOnUse"><stop offset="0" stop-color="#1f90f8" stop-opacity="1"/><stop offset="0.9944" stop-color="#2caaff" stop-opacity="1"/></linearGradient><linearGradient id="SVGID_52_" x1="542.95" y1="744.736" x2="545.268" y2="817.535" spreadMethod="pad" gradientUnits="userSpaceOnUse"><stop offset="0.00558659" stop-color="#1732a5" stop-opacity="1"/><stop offset="0.9944" stop-color="#196fde" stop-opacity="1"/></linearGradient><linearGradient id="SVGID_15_" x1="-8.6521" y1="342.735" x2="597.978" y2="638.612" spreadMethod="pad" gradientUnits="userSpaceOnUse"><stop offset="0.00558659" stop-color="#1732a5" stop-opacity="1"/><stop offset="0.9944" stop-color="#196fde" stop-opacity="1"/></linearGradient><linearGradient id="SVGID_37_" x1="254.332" y1="804.222" x2="320.45" y2="826.262" spreadMethod="pad" gradientUnits="userSpaceOnUse"><stop offset="0" stop-color="#50c9ff" stop-opacity="1"/><stop offset="0.9944" stop-color="#1ba8ff" stop-opacity="1"/></linearGradient><linearGradient id="SVGID_21_" x1="488.77" y1="722.367" x2="250.011" y2="861.214" spreadMethod="pad" gradientUnits="userSpaceOnUse"><stop offset="0" stop-color="#085ec4" stop-opacity="1"/><stop offset="0.9944" stop-color="#009cea" stop-opacity="1"/></linearGradient><linearGradient id="SVGID_44_" x1="464.519" y1="730.643" x2="428.709" y2="749.232" spreadMethod="pad" gradientUnits="userSpaceOnUse"><stop offset="0" stop-color="#50d2ff" stop-opacity="1"/><stop offset="0.9944" stop-color="#2caaff" stop-opacity="1"/></linearGradient><linearGradient id="SVGID_9_" x1="274.404" y1="867.571" x2="286.333" y2="867.571" spreadMethod="pad" gradientUnits="userSpaceOnUse"><stop offset="0" stop-color="#1f90f8" stop-opacity="1"/><stop offset="0.9944" stop-color="#2caaff" stop-opacity="1"/></linearGradient><linearGradient id="SVGID_6_" x1="324.502" y1="899.503" x2="336.404" y2="899.503" spreadMethod="pad" gradientUnits="userSpaceOnUse"><stop offset="0" stop-color="#2196fd" stop-opacity="1"/><stop offset="0.9944" stop-color="#1ba8ff" stop-opacity="1"/></linearGradient><linearGradient id="SVGID_5_" x1="200.404" y1="904.904" x2="212.333" y2="904.904" spreadMethod="pad" gradientUnits="userSpaceOnUse"><stop offset="0" stop-color="#1f90f8" stop-opacity="1"/><stop offset="0.9944" stop-color="#2caaff" stop-opacity="1"/></linearGradient><linearGradient id="SVGID_48_" x1="700.95" y1="680.736" x2="703.268" y2="753.535" spreadMethod="pad" gradientUnits="userSpaceOnUse"><stop offset="0.00558659" stop-color="#1732a5" stop-opacity="1"/><stop offset="0.9944" stop-color="#196fde" stop-opacity="1"/></linearGradient><linearGradient id="SVGID_20_" x1="411.817" y1="826.853" x2="577.785" y2="733.308" spreadMethod="pad" gradientUnits="userSpaceOnUse"><stop offset="0" stop-color="#1f90f8" stop-opacity="1"/><stop offset="0.9944" stop-color="#2caaff" stop-opacity="1"/></linearGradient><linearGradient id="SVGID_3_" x1="262.404" y1="936.904" x2="274.333" y2="936.904" spreadMethod="pad" gradientUnits="userSpaceOnUse"><stop offset="0" stop-color="#1f90f8" stop-opacity="1"/><stop offset="0.9944" stop-color="#2caaff" stop-opacity="1"/></linearGradient><linearGradient id="SVGID_50_" x1="759.132" y1="648.677" x2="761.45" y2="721.476" spreadMethod="pad" gradientUnits="userSpaceOnUse"><stop offset="0.00558659" stop-color="#1732a5" stop-opacity="1"/><stop offset="0.9944" stop-color="#196fde" stop-opacity="1"/></linearGradient><linearGradient id="SVGID_43_" x1="384.915" y1="722.126" x2="451.033" y2="744.165" spreadMethod="pad" gradientUnits="userSpaceOnUse"><stop offset="0" stop-color="#50c9ff" stop-opacity="1"/><stop offset="0.9944" stop-color="#1ba8ff" stop-opacity="1"/></linearGradient><linearGradient id="SVGID_47_" x1="671.76" y1="696.568" x2="674.078" y2="769.367" spreadMethod="pad" gradientUnits="userSpaceOnUse"><stop offset="0.00558659" stop-color="#1732a5" stop-opacity="1"/><stop offset="0.9944" stop-color="#196fde" stop-opacity="1"/></linearGradient><linearGradient id="SVGID_28_" x1="286.448" y1="432.55" x2="494.322" y2="557.275" spreadMethod="pad" gradientUnits="userSpaceOnUse"><stop offset="0.00558659" stop-color="#1732a5" stop-opacity="1"/><stop offset="0.9944" stop-color="#196fde" stop-opacity="1"/></linearGradient><linearGradient id="SVGID_54_" x1="601.132" y1="712.677" x2="603.45" y2="785.476" spreadMethod="pad" gradientUnits="userSpaceOnUse"><stop offset="0.00558659" stop-color="#1732a5" stop-opacity="1"/><stop offset="0.9944" stop-color="#196fde" stop-opacity="1"/></linearGradient><linearGradient id="SVGID_8_" x1="262.502" y1="867.503" x2="274.404" y2="867.503" spreadMethod="pad" gradientUnits="userSpaceOnUse"><stop offset="0" stop-color="#2196fd" stop-opacity="1"/><stop offset="0.9944" stop-color="#1ba8ff" stop-opacity="1"/></linearGradient><linearGradient id="SVGID_18_" x1="10.7805" y1="550.439" x2="443.3" y2="761.396" spreadMethod="pad" gradientUnits="userSpaceOnUse"><stop offset="0.00558659" stop-color="#1732a5" stop-opacity="1"/><stop offset="0.9944" stop-color="#196fde" stop-opacity="1"/></linearGradient><linearGradient id="SVGID_53_" x1="571.942" y1="728.509" x2="574.26" y2="801.308" spreadMethod="pad" gradientUnits="userSpaceOnUse"><stop offset="0.00558659" stop-color="#1732a5" stop-opacity="1"/><stop offset="0.9944" stop-color="#196fde" stop-opacity="1"/></linearGradient><linearGradient id="SVGID_1_" x1="250.501" y1="892.528" x2="274.333" y2="892.528" spreadMethod="pad" gradientUnits="userSpaceOnUse"><stop offset="0" stop-color="#76dcff" stop-opacity="1"/><stop offset="0.9944" stop-color="#94ebff" stop-opacity="1"/></linearGradient><linearGradient id="SVGID_7_" x1="336.404" y1="899.571" x2="348.333" y2="899.571" spreadMethod="pad" gradientUnits="userSpaceOnUse"><stop offset="0" stop-color="#1f90f8" stop-opacity="1"/><stop offset="0.9944" stop-color="#2caaff" stop-opacity="1"/></linearGradient><linearGradient id="SVGID_4_" x1="188.501" y1="904.836" x2="200.404" y2="904.836" spreadMethod="pad" gradientUnits="userSpaceOnUse"><stop offset="0" stop-color="#2196fd" stop-opacity="1"/><stop offset="0.9944" stop-color="#1ba8ff" stop-opacity="1"/></linearGradient><linearGradient id="SVGID_24_" x1="648.38" y1="363.663" x2="652.013" y2="477.732" spreadMethod="pad" gradientUnits="userSpaceOnUse"><stop offset="0" stop-color="#48b6f9" stop-opacity="1"/><stop offset="0.9944" stop-color="#67d0f4" stop-opacity="1"/></linearGradient><linearGradient id="SVGID_45_" x1="741.918" y1="463.71" x2="748.043" y2="656.022" spreadMethod="pad" gradientUnits="userSpaceOnUse"><stop offset="0" stop-color="#5fbbff" stop-opacity="1"/><stop offset="0.9944" stop-color="#7be0ff" stop-opacity="1"/></linearGradient><linearGradient id="SVGID_29_" x1="408.757" y1="580.343" x2="520.759" y2="517.215" spreadMethod="pad" gradientUnits="userSpaceOnUse"><stop offset="0" stop-color="#1f90f8" stop-opacity="1"/><stop offset="0.9944" stop-color="#2caaff" stop-opacity="1"/></linearGradient><linearGradient id="SVGID_16_" x1="541.431" y1="730.87" x2="775.275" y2="599.067" spreadMethod="pad" gradientUnits="userSpaceOnUse"><stop offset="0" stop-color="#1f90f8" stop-opacity="1"/><stop offset="0.9944" stop-color="#2caaff" stop-opacity="1"/></linearGradient><linearGradient id="SVGID_55_" x1="788.124" y1="632.449" x2="790.442" y2="705.248" spreadMethod="pad" gradientUnits="userSpaceOnUse"><stop offset="0.00558659" stop-color="#1732a5" stop-opacity="1"/><stop offset="0.9944" stop-color="#196fde" stop-opacity="1"/></linearGradient><linearGradient id="SVGID_27_" x1="513.307" y1="408.536" x2="407.692" y2="406.475" spreadMethod="pad" gradientUnits="userSpaceOnUse"><stop offset="0" stop-color="#2196fd" stop-opacity="1"/><stop offset="0.9944" stop-color="#1ba8ff" stop-opacity="1"/></linearGradient><linearGradient id="SVGID_36_" x1="275.118" y1="789.205" x2="342.312" y2="789.205" spreadMethod="pad" gradientUnits="userSpaceOnUse"><stop offset="0" stop-color="#76dcff" stop-opacity="1"/><stop offset="0.9944" stop-color="#94ebff" stop-opacity="1"/></linearGradient><linearGradient id="SVGID_13_" x1="347.071" y1="816.904" x2="359" y2="816.904" spreadMethod="pad" gradientUnits="userSpaceOnUse"><stop offset="0" stop-color="#1f90f8" stop-opacity="1"/><stop offset="0.9944" stop-color="#2caaff" stop-opacity="1"/></linearGradient><linearGradient id="SVGID_23_" x1="198.889" y1="940.194" x2="375.33" y2="840.745" spreadMethod="pad" gradientUnits="userSpaceOnUse"><stop offset="0" stop-color="#1f90f8" stop-opacity="1"/><stop offset="0.9944" stop-color="#2caaff" stop-opacity="1"/></linearGradient><linearGradient id="SVGID_40_" x1="319.899" y1="764.552" x2="386.017" y2="786.591" spreadMethod="pad" gradientUnits="userSpaceOnUse"><stop offset="0" stop-color="#50c9ff" stop-opacity="1"/><stop offset="0.9944" stop-color="#1ba8ff" stop-opacity="1"/></linearGradient><linearGradient id="SVGID_2_" x1="250.501" y1="936.836" x2="262.404" y2="936.836" spreadMethod="pad" gradientUnits="userSpaceOnUse"><stop offset="0" stop-color="#2196fd" stop-opacity="1"/><stop offset="0.9944" stop-color="#1ba8ff" stop-opacity="1"/></linearGradient><linearGradient id="SVGID_51_" x1="513.76" y1="760.568" x2="516.078" y2="833.367" spreadMethod="pad" gradientUnits="userSpaceOnUse"><stop offset="0.00558659" stop-color="#1732a5" stop-opacity="1"/><stop offset="0.9944" stop-color="#196fde" stop-opacity="1"/></linearGradient><linearGradient id="SVGID_56_" x1="817.314" y1="616.617" x2="819.632" y2="689.416" spreadMethod="pad" gradientUnits="userSpaceOnUse"><stop offset="0.00558659" stop-color="#1732a5" stop-opacity="1"/><stop offset="0.9944" stop-color="#196fde" stop-opacity="1"/></linearGradient><linearGradient id="SVGID_26_" x1="681.099" y1="528.436" x2="646.938" y2="208.867" spreadMethod="pad" gradientUnits="userSpaceOnUse"><stop offset="0" stop-color="#b8f5ff" stop-opacity="1"/><stop offset="0.9944" stop-color="#8afffc" stop-opacity="1"/></linearGradient><linearGradient id="SVGID_46_" x1="554.818" y1="649.502" x2="557.939" y2="747.492" spreadMethod="pad" gradientUnits="userSpaceOnUse"><stop offset="0" stop-color="#5fbbff" stop-opacity="1"/><stop offset="0.9944" stop-color="#7be0ff" stop-opacity="1"/></linearGradient><linearGradient id="SVGID_17_" x1="578.942" y1="617.901" x2="341.627" y2="613.271" spreadMethod="pad" gradientUnits="userSpaceOnUse"><stop offset="0" stop-color="#2196fd" stop-opacity="1"/><stop offset="0.9944" stop-color="#1ba8ff" stop-opacity="1"/></linearGradient><linearGradient id="SVGID_19_" x1="410.661" y1="721.729" x2="412.758" y2="876.852" spreadMethod="pad" gradientUnits="userSpaceOnUse"><stop offset="0.00558659" stop-color="#1732a5" stop-opacity="1"/><stop offset="0.9944" stop-color="#196fde" stop-opacity="1"/></linearGradient><linearGradient id="SVGID_12_" x1="335.168" y1="816.836" x2="347.071" y2="816.836" spreadMethod="pad" gradientUnits="userSpaceOnUse"><stop offset="0" stop-color="#2196fd" stop-opacity="1"/><stop offset="0.9944" stop-color="#1ba8ff" stop-opacity="1"/></linearGradient><linearGradient id="SVGID_30_" x1="574.75" y1="335.12" x2="408.759" y2="331.882" spreadMethod="pad" gradientUnits="userSpaceOnUse"><stop offset="0" stop-color="#2196fd" stop-opacity="1"/><stop offset="0.9944" stop-color="#1ba8ff" stop-opacity="1"/></linearGradient><linearGradient id="SVGID_11_" x1="409.071" y1="848.904" x2="421" y2="848.904" spreadMethod="pad" gradientUnits="userSpaceOnUse"><stop offset="0" stop-color="#1f90f8" stop-opacity="1"/><stop offset="0.9944" stop-color="#2caaff" stop-opacity="1"/></linearGradient><linearGradient id="SVGID_33_" x1="209" y1="829.427" x2="276.194" y2="829.427" spreadMethod="pad" gradientUnits="userSpaceOnUse"><stop offset="0" stop-color="#76dcff" stop-opacity="1"/><stop offset="0.9944" stop-color="#94ebff" stop-opacity="1"/></linearGradient><linearGradient id="SVGID_34_" x1="188.214" y1="844.444" x2="254.332" y2="866.483" spreadMethod="pad" gradientUnits="userSpaceOnUse"><stop offset="0" stop-color="#50c9ff" stop-opacity="1"/><stop offset="0.9944" stop-color="#1ba8ff" stop-opacity="1"/></linearGradient><linearGradient id="SVGID_35_" x1="278.916" y1="847.015" x2="230.797" y2="871.993" spreadMethod="pad" gradientUnits="userSpaceOnUse"><stop offset="0" stop-color="#50d2ff" stop-opacity="1"/><stop offset="0.9944" stop-color="#2caaff" stop-opacity="1"/></linearGradient><linearGradient id="SVGID_10_" x1="397.168" y1="848.836" x2="409.071" y2="848.836" spreadMethod="pad" gradientUnits="userSpaceOnUse"><stop offset="0" stop-color="#2196fd" stop-opacity="1"/><stop offset="0.9944" stop-color="#1ba8ff" stop-opacity="1"/></linearGradient><linearGradient id="SVGID_22_" x1="42.2219" y1="819" x2="213.556" y2="902.566" spreadMethod="pad" gradientUnits="userSpaceOnUse"><stop offset="0.00558659" stop-color="#1732a5" stop-opacity="1"/><stop offset="0.9944" stop-color="#196fde" stop-opacity="1"/></linearGradient><linearGradient id="SVGID_25_" x1="648.101" y1="345.549" x2="651.734" y2="459.618" spreadMethod="pad" gradientUnits="userSpaceOnUse"><stop offset="0" stop-color="#76dcff" stop-opacity="1"/><stop offset="0.9944" stop-color="#94ebff" stop-opacity="1"/></linearGradient><linearGradient id="SVGID_39_" x1="340.685" y1="749.535" x2="407.879" y2="749.535" spreadMethod="pad" gradientUnits="userSpaceOnUse"><stop offset="0" stop-color="#76dcff" stop-opacity="1"/><stop offset="0.9944" stop-color="#94ebff" stop-opacity="1"/></linearGradient><linearGradient id="SVGID_14_" x1="774.79" y1="425.708" x2="460.924" y2="419.584" spreadMethod="pad" gradientUnits="userSpaceOnUse"><stop offset="0" stop-color="#2196fd" stop-opacity="1"/><stop offset="0.9944" stop-color="#1ba8ff" stop-opacity="1"/></linearGradient><linearGradient id="SVGID_41_" x1="410.601" y1="767.123" x2="362.482" y2="792.101" spreadMethod="pad" gradientUnits="userSpaceOnUse"><stop offset="0" stop-color="#50d2ff" stop-opacity="1"/><stop offset="0.9944" stop-color="#2caaff" stop-opacity="1"/></linearGradient><linearGradient id="SVGID_38_" x1="345.034" y1="806.793" x2="296.915" y2="831.771" spreadMethod="pad" gradientUnits="userSpaceOnUse"><stop offset="0" stop-color="#50d2ff" stop-opacity="1"/><stop offset="0.9944" stop-color="#2caaff" stop-opacity="1"/></linearGradient></defs><g transform="matrix(0.279049,0,0,0.279049,-12.0549,-17.7196)"><polygon fill="url(#SVGID_1_)" points="250.5,892.8 262.4,899.4 274.3,892.9 262.3,885.6"/><polygon fill="url(#SVGID_2_)" points="250.5,892.8 250.5,974.2 262.4,980.9 262.4,899.4"/><polygon fill="url(#SVGID_3_)" points="274.3,974.4 274.3,892.9 262.4,899.4 262.4,980.9"/><polygon fill="url(#SVGID_4_)" points="188.5,860.8 188.5,942.2 200.4,948.9 200.4,867.4"/><polygon fill="url(#SVGID_5_)" points="212.3,942.4 212.3,860.9 200.4,867.4 200.4,948.9"/><polygon fill="url(#SVGID_6_)" points="324.5,855.5 324.5,936.9 336.4,943.5 336.4,862.1"/><polygon fill="url(#SVGID_7_)" points="348.3,937 348.3,855.6 336.4,862.1 336.4,943.5"/><polygon fill="url(#SVGID_8_)" points="262.5,823.5 262.5,904.9 274.4,911.5 274.4,830.1"/><polygon fill="url(#SVGID_9_)" points="286.3,905 286.3,823.6 274.4,830.1 274.4,911.5"/><polygon fill="url(#SVGID_10_)" points="397.2,804.8 397.2,886.2 409.1,892.9 409.1,811.4"/><polygon fill="url(#SVGID_11_)" points="421,886.4 421,804.9 409.1,811.4 409.1,892.9"/><polygon fill="url(#SVGID_12_)" points="335.2,772.8 335.2,854.2 347.1,860.9 347.1,779.4"/><polygon fill="url(#SVGID_13_)" points="359,854.4 359,772.9 347.1,779.4 347.1,860.9"/><polygon fill="url(#SVGID_14_)" points="457.9,427.4 647.4,533.3 837.4,429.6 645.5,313.1"/><polygon fill="url(#SVGID_15_)" points="457.9,427.4 457.9,699.7 647.4,805.6 647.4,533.3"/><polygon fill="url(#SVGID_16_)" points="837.4,701.9 837.4,429.6 647.4,533.3 647.4,805.6"/><polygon fill="url(#SVGID_17_)" points="339.3,619.2 482.6,699.3 626.3,620.8 481.2,532.8"/><polygon fill="url(#SVGID_18_)" points="339.3,619.2 339.3,792 482.6,872.1 482.6,699.3"/><polygon fill="url(#SVGID_19_)" points="462,717.4 462,830.8 437.7,817.3 419.1,806.9 360,773.9 360,660.4 424.4,696.4 439.8,705 459.1,715.8"/><polygon fill="url(#SVGID_20_)" points="626.3,793.6 626.3,620.8 482.6,699.3 482.6,872.1"/><polygon fill="url(#SVGID_21_)" points="462,717.4 462,783.4 419.1,806.9 239.1,905.4 162.4,866.7 442.7,706.2"/><polygon fill="url(#SVGID_22_)" points="162.4,866.6 162.4,887.2 239.1,926 239.1,905.4"/><polygon fill="url(#SVGID_23_)" points="462,783.4 462,804 437.7,817.3 239.1,926 239.1,905.4 419.1,806.9"/><path fill="url(#SVGID_24_)" d="M 743.3 408.2 C 730.5 385 693.6 368.2 650.1 368.2 C 606.6 368.2 569.7 385 556.9 408.2 L 552 408.2 L 552 426.3 C 552 458.4 595.9 484.4 650.1 484.4 C 704.3 484.4 748.2 458.4 748.2 426.3 L 748.2 408.2 L 743.3 408.2 Z"/><ellipse fill="url(#SVGID_25_)" cx="650.1" cy="408.2" rx="98.1" ry="58.1"/><circle fill="url(#SVGID_26_)" cx="651.7" cy="253.2" r="189.7"/><polygon fill="url(#SVGID_27_)" points="406.7,406.1 475.6,442.1 534.4,407.5 465.7,373.3"/><polygon fill="url(#SVGID_28_)" points="406.7,406.1 406.7,608.7 475.6,644.7 475.6,442.1"/><polygon fill="url(#SVGID_29_)" points="534.4,610.1 534.4,407.5 475.6,442.1 475.6,644.7"/><polygon fill="url(#SVGID_30_)" points="406.7,357.7 475.6,393.7 608.3,317.1 544.3,274"/><polygon fill="url(#SVGID_31_)" points="406.7,357.7 406.7,406 475.6,442 475.6,393.7"/><polygon fill="url(#SVGID_32_)" points="608.3,365.5 608.3,317.1 475.6,393.7 475.6,442"/><g><polygon fill="url(#SVGID_33_)" points="209,830.2 242.6,848.9 276.2,830.6 242.2,809.9"/><polygon fill="url(#SVGID_34_)" points="209,830.2 209,865 242.6,883.8 242.6,848.9"/><polygon fill="url(#SVGID_35_)" points="276.2,865.4 276.2,830.6 242.6,848.9 242.6,883.8"/></g><g><polygon fill="url(#SVGID_36_)" points="275.1,790 308.7,808.7 342.3,790.3 308.3,769.7"/><polygon fill="url(#SVGID_37_)" points="275.1,790 275.1,824.8 308.7,843.5 308.7,808.7"/><polygon fill="url(#SVGID_38_)" points="342.3,825.2 342.3,790.3 308.7,808.7 308.7,843.5"/></g><g><polygon fill="url(#SVGID_39_)" points="340.7,750.3 374.2,769 407.9,750.7 373.9,730"/><polygon fill="url(#SVGID_40_)" points="340.7,750.3 340.7,785.1 374.2,803.9 374.2,769"/><polygon fill="url(#SVGID_41_)" points="407.9,785.5 407.9,750.7 374.2,769 374.2,803.9"/></g><g><polygon fill="url(#SVGID_42_)" points="459.1,715.8 439.3,726.6 405.7,707.9 424.4,696.4 439.8,705"/><polygon fill="url(#SVGID_43_)" points="405.7,707.9 405.7,742.7 439.3,761.4 439.3,726.6"/><polygon fill="url(#SVGID_44_)" points="462,717.4 462,749 439.3,761.4 439.3,726.6 459.1,715.8"/></g><polygon fill="url(#SVGID_45_)" points="824.5,590.2 824.5,468.6 666.1,548.4 666.1,670"/><polygon fill="url(#SVGID_46_)" points="609,702.1 609,651.6 504.1,704.5 504.1,755"/><polygon fill="url(#SVGID_47_)" points="680.5,766.1 680.5,699.1 665.6,707 665.6,773.9"/><polygon fill="url(#SVGID_48_)" points="709.7,750.3 709.7,683.3 694.8,691.2 694.8,758.1"/><polygon fill="url(#SVGID_49_)" points="738.7,734 738.7,667.1 723.8,674.9 723.8,741.9"/><polygon fill="url(#SVGID_50_)" points="767.9,718.2 767.9,651.2 752.9,659.1 752.9,726"/><polygon fill="url(#SVGID_51_)" points="522.5,830.1 522.5,763.1 507.6,771 507.6,837.9"/><polygon fill="url(#SVGID_52_)" points="551.7,814.3 551.7,747.3 536.8,755.2 536.8,822.1"/><polygon fill="url(#SVGID_53_)" points="580.7,798 580.7,731.1 565.8,738.9 565.8,805.9"/><polygon fill="url(#SVGID_54_)" points="609.9,782.2 609.9,715.2 594.9,723.1 594.9,790"/><polygon fill="url(#SVGID_55_)" points="796.9,702 796.9,635 781.9,642.9 781.9,709.8"/><polygon fill="url(#SVGID_56_)" points="826.1,686.1 826.1,619.2 811.1,627 811.1,694"/></g></svg>
