<?xml version="1.0" encoding="UTF-8" standalone="yes"?><svg id="图层_1" xmlns="http://www.w3.org/2000/svg" xmlns:xlink="http://www.w3.org/1999/xlink" version="1.2" baseProfile="tiny" x="0" y="0" width="256" height="256" viewBox="0 0 256 256"><defs><linearGradient id="SVGID_1_" x1="210.854" y1="134.351" x2="99.065" y2="134.351" spreadMethod="pad" gradientUnits="userSpaceOnUse"><stop offset="0" stop-color="#5d9cfb" stop-opacity="1"/><stop offset="1" stop-color="#2d7df5" stop-opacity="1"/></linearGradient><linearGradient id="SVGID_5_" x1="120.573" y1="26.3017" x2="120.573" y2="112.497" spreadMethod="pad" gradientUnits="userSpaceOnUse"><stop offset="0" stop-color="#fc7a21" stop-opacity="1"/><stop offset="0.7889" stop-color="rgba(253,193,95,0.320607)" stop-opacity="0.320607"/><stop offset="1" stop-color="rgba(253,213,112,0.138705)" stop-opacity="0.138705"/><stop offset="1" stop-color="rgba(253,225,124,0)" stop-opacity="0"/></linearGradient><linearGradient id="SVGID_3_" x1="34.0007" y1="135.324" x2="206.102" y2="135.324" spreadMethod="pad" gradientUnits="userSpaceOnUse"><stop offset="0" stop-color="rgba(255,255,255,0)" stop-opacity="0"/><stop offset="1" stop-color="#ffffff" stop-opacity="1"/></linearGradient><linearGradient id="SVGID_2_" x1="128" y1="181.986" x2="128" y2="148.442" spreadMethod="pad" gradientUnits="userSpaceOnUse"><stop offset="0" stop-color="#2a5eff" stop-opacity="1"/><stop offset="1" stop-color="rgba(21,114,255,0)" stop-opacity="0"/></linearGradient><linearGradient id="XMLID_3_" x1="210.695" y1="100.445" x2="165.049" y2="124.33" spreadMethod="pad" gradientUnits="userSpaceOnUse"><stop offset="0" stop-color="#55b0ff" stop-opacity="1"/><stop offset="0.1101" stop-color="#83c5ff" stop-opacity="1"/><stop offset="0.4398" stop-color="#cce7ff" stop-opacity="1"/><stop offset="0.5297" stop-color="#e1f1ff" stop-opacity="1"/><stop offset="0.5303" stop-color="#e1f1ff" stop-opacity="1"/><stop offset="0.6136" stop-color="#e9f5ff" stop-opacity="1"/><stop offset="0.675" stop-color="#f0f8ff" stop-opacity="1"/><stop offset="0.8342" stop-color="#fbfdff" stop-opacity="1"/><stop offset="1" stop-color="#ffffff" stop-opacity="1"/></linearGradient><linearGradient id="SVGID_6_" x1="87.0162" y1="40.9713" x2="87.0162" y2="85.8637" spreadMethod="pad" gradientUnits="userSpaceOnUse"><stop offset="0" stop-color="#ffba3f" stop-opacity="1"/><stop offset="0.00447571" stop-color="#ffbb41" stop-opacity="1"/><stop offset="0.1411" stop-color="#ffcd73" stop-opacity="1"/><stop offset="0.2807" stop-color="#ffdc9e" stop-opacity="1"/><stop offset="0.421" stop-color="#ffe9c1" stop-opacity="1"/><stop offset="0.5622" stop-color="#fff2dc" stop-opacity="1"/><stop offset="0.7048" stop-color="#fff9f0" stop-opacity="1"/><stop offset="0.8496" stop-color="#fffefb" stop-opacity="1"/><stop offset="1" stop-color="#ffffff" stop-opacity="1"/></linearGradient><linearGradient id="SVGID_4_" x1="88.5405" y1="51" x2="88.5405" y2="85.5769" spreadMethod="pad" gradientUnits="userSpaceOnUse"><stop offset="0" stop-color="#fca123" stop-opacity="1"/><stop offset="0.806" stop-color="rgba(253,212,106,0.194003)" stop-opacity="0.194003"/><stop offset="1" stop-color="rgba(253,225,124,0)" stop-opacity="0"/></linearGradient></defs><g transform="matrix(1,0,0,1,1e-06,4.59064e-07)"><g transform="matrix(1.33398,0,0,1.33398,-42.6875,-42.8166)"><g><path fill="url(#SVGID_1_)" d="M 214 184.6 L 42 184.6 C 36.5 184.6 32 180.5 32 175.5 L 32 93.2 C 32 88.2 36.5 84.1 42 84.1 L 183 84.1 C 186.3 84.1 189.3 85.5 191.2 88 L 221.5 127.1 C 222.7 128.6 223.3 130.4 223.3 132.2 L 223.9 175.5 C 224.1 180.5 219.6 184.6 214 184.6 Z"/><path fill="url(#SVGID_2_)" d="M 214 184.6 L 42 184.6 C 36.5 184.6 32 180.5 32 175.5 L 32 93.2 C 32 88.2 36.5 84.1 42 84.1 L 183 84.1 C 186.3 84.1 189.3 85.5 191.2 88 L 221.5 127.1 C 222.7 128.6 223.3 130.4 223.3 132.2 L 223.9 175.5 C 224.1 180.5 219.6 184.6 214 184.6 Z"/><path fill="url(#SVGID_3_)" d="M 109.1 184.6 L 41.4 184.6 C 36.2 184.6 32 180.4 32 175.2 L 32 95.4 C 32 90.2 36.2 86 41.4 86 L 99.6 86 C 104.8 86 109 90.2 109 95.4 L 109 184.6 L 109.1 184.6 Z"/><path fill="#ffc107" d="M 135.1 148.9 L 42 148.9 C 36.5 148.9 32 144.4 32 138.9 L 32 61 C 32 55.5 36.5 51 42 51 L 135.1 51 C 140.6 51 145.1 55.5 145.1 61 L 145.1 138.9 C 145.1 144.5 140.6 148.9 135.1 148.9 Z"/><path fill="url(#SVGID_4_)" d="M 135.1 148.9 L 42 148.9 C 36.5 148.9 32 144.4 32 138.9 L 32 61 C 32 55.5 36.5 51 42 51 L 135.1 51 C 140.6 51 145.1 55.5 145.1 61 L 145.1 138.9 C 145.1 144.5 140.6 148.9 135.1 148.9 Z"/><path fill="#ffad1d" d="M 135.1 148.9 L 96.1 148.9 L 96.1 61 C 96.1 55.5 100.6 51 106.1 51 L 135.1 51 C 140.6 51 145.1 55.5 145.1 61 L 145.1 138.9 C 145.1 144.5 140.6 148.9 135.1 148.9 Z"/><path fill="url(#SVGID_5_)" d="M 135.1 148.9 L 96.1 148.9 L 96.1 61 C 96.1 55.5 100.6 51 106.1 51 L 135.1 51 C 140.6 51 145.1 55.5 145.1 61 L 145.1 138.9 C 145.1 144.5 140.6 148.9 135.1 148.9 Z"/><ellipse fill="#4d4d4d" cx="82.9" cy="183" rx="22" ry="22"/><path fill="#333333" d="M 99.5 168.5 C 100.7 171.2 101.4 174.3 101.4 177.5 C 101.4 190 91.3 200.1 78.8 200.1 C 73.3 200.1 68.3 198.1 64.4 194.9 C 68.3 201 75.1 205 82.9 205 C 95.1 205 104.9 195.1 104.9 183 C 104.9 177.4 102.9 172.4 99.5 168.5 Z"/><ellipse fill="#ffffff" cx="82.9" cy="183" rx="9.9" ry="9.9"/><ellipse fill="#4d4d4d" cx="174.7" cy="183" rx="22" ry="22"/><path fill="#333333" d="M 191.3 168.5 C 192.5 171.2 193.2 174.3 193.2 177.5 C 193.2 190 183.1 200.1 170.6 200.1 C 165.1 200.1 160.1 198.1 156.2 194.9 C 160.1 201 166.9 205.1 174.7 205.1 C 186.9 205.1 196.7 195.2 196.7 183.1 C 196.7 177.4 194.7 172.4 191.3 168.5 Z"/><ellipse fill="#ffffff" cx="174.7" cy="183" rx="9.9" ry="9.9"/><path fill="url(#SVGID_6_)" d="M 69.6 51 L 104.5 51 L 104.5 86.9 C 104.5 88.4 102.9 89.3 101.6 88.6 L 88 80.8 C 87.4 80.5 86.7 80.5 86.1 80.8 L 72.5 88.6 C 71.2 89.3 69.6 88.4 69.6 86.9 L 69.6 51 Z"/><path id="XMLID_1690_" fill="#fafafa" d="M 152.4 100.3 L 152.4 131.7 C 152.4 134.1 154.4 136.1 156.8 136.1 L 205.1 136.1 C 208.8 136.1 210.8 131.8 208.5 129 L 183.2 97.6 C 182.4 96.6 181.1 96 179.8 96 L 156.7 96 C 154.4 95.9 152.4 97.9 152.4 100.3 Z"/><path id="XMLID_1_" fill="url(#XMLID_3_)" d="M 152.4 100.3 L 152.4 131.7 C 152.4 134.1 154.4 136.1 156.8 136.1 L 205.1 136.1 C 208.8 136.1 210.8 131.8 208.5 129 L 183.2 97.6 C 182.4 96.6 181.1 96 179.8 96 L 156.7 96 C 154.4 95.9 152.4 97.9 152.4 100.3 Z"/></g></g></g></svg>
