<?xml version="1.0" encoding="UTF-8" standalone="yes"?><svg id="图层_1" xmlns="http://www.w3.org/2000/svg" xmlns:xlink="http://www.w3.org/1999/xlink" version="1.2" baseProfile="tiny" x="0" y="0" width="256" height="256" viewBox="0 0 256 256"><defs/><g transform="matrix(1,0,0,1,3.26687e-07,-9.9e-08)"><g transform="matrix(0.33303,0,0,0.33303,-56.257,-42.6611)"><g><path fill="#f0e7dc" fill-rule="evenodd" clip-rule="evenodd" d="M 219.4 133 L 739.6 133 C 752 133 762 143 762 155.4 L 762 779 L 650.1 891 L 219.4 891 C 207 891 197 881 197 868.6 L 197 155.4 C 197 143 207 133 219.4 133 Z"/></g><g><path fill="#002368" d="M 650.6 896.8 L 219.9 896.8 C 204.6 896.8 192.1 884.3 192.1 869 L 192.1 155.9 C 192.1 140.6 204.5 128.1 219.9 128.1 L 740.1 128.1 C 755.4 128.1 767.9 140.6 767.9 155.9 L 767.9 779.5 C 767.9 780.9 767.3 782.3 766.3 783.3 L 654.4 895.3 C 653.4 896.3 652 896.8 650.6 896.8 M 219.9 138.8 C 210.5 138.8 202.8 146.5 202.8 155.9 L 202.8 869 C 202.8 878.4 210.5 886.1 219.9 886.1 L 648.4 886.1 L 757.2 777.3 L 757.2 155.9 C 757.2 146.5 749.5 138.8 740.1 138.8 L 219.9 138.8 M 762.5 779.5"/></g><g><path fill="#ceb08b" fill-rule="evenodd" clip-rule="evenodd" d="M 650 779 L 762 779 L 650 891 L 650 779 Z"/></g><g><path fill="#002368" d="M 650.5 896.8 C 649.8 896.8 649.1 896.7 648.5 896.4 C 646.5 895.6 645.2 893.6 645.2 891.5 L 645.2 779.5 C 645.2 776.6 647.6 774.2 650.5 774.2 L 762.5 774.2 C 764.7 774.2 766.6 775.5 767.4 777.5 C 768.2 779.5 767.8 781.8 766.2 783.3 L 654.2 895.3 C 653.3 896.3 651.9 896.8 650.5 896.8 M 655.8 784.8 L 655.8 878.6 L 749.6 784.8 L 655.8 784.8"/></g><g><path fill="#f2ac4a" fill-rule="evenodd" clip-rule="evenodd" d="M 430 237.5 C 430 210.2 452.2 188 479.5 188 C 506.8 188 529 210.2 529 237.5 C 529 264.8 506.8 287 479.5 287 C 452.2 287 430 264.8 430 237.5 Z"/></g><g><path fill="#002368" d="M 480 292.8 C 449.8 292.8 425.2 268.2 425.2 238 C 425.2 207.8 449.8 183.2 480 183.2 C 510.2 183.2 534.8 207.8 534.8 238 C 534.8 268.2 510.2 292.8 480 292.8 M 480 193.8 C 455.6 193.8 435.8 213.6 435.8 238 C 435.8 262.4 455.6 282.2 480 282.2 C 504.4 282.2 524.2 262.4 524.2 238 C 524.2 213.6 504.4 193.8 480 193.8"/></g><g><path fill="#ff7b53" fill-rule="evenodd" clip-rule="evenodd" d="M 322 133 L 394 133 L 197 314 L 197 247.9 L 322 133 Z"/></g><g><path fill="#002368" d="M 197.5 319.8 C 196.8 319.8 196 319.7 195.4 319.3 C 193.5 318.4 192.2 316.5 192.2 314.4 L 192.2 248.3 C 192.2 246.8 192.8 245.4 193.9 244.4 L 318.9 129.5 C 319.9 128.6 321.2 128.1 322.5 128.1 L 394.5 128.1 C 396.7 128.1 398.7 129.4 399.5 131.5 C 400.3 133.5 399.8 135.9 398.1 137.4 L 201.1 318.4 C 200.1 319.3 198.8 319.8 197.5 319.8 M 202.8 250.7 L 202.8 302.3 L 380.8 138.8 L 324.6 138.8 L 202.8 250.7"/></g><g><path fill="#ff7b53" fill-rule="evenodd" clip-rule="evenodd" d="M 636.3 133 L 564 133 L 762 314 L 762 247.9 L 636.3 133 Z"/></g><g><path fill="#002368" d="M 762.5 319.8 C 761.2 319.8 759.9 319.3 758.9 318.4 L 560.9 137.4 C 559.3 135.9 558.7 133.6 559.5 131.5 C 560.3 129.4 562.3 128.1 564.5 128.1 L 636.8 128.1 C 638.1 128.1 639.4 128.6 640.4 129.5 L 766.1 244.4 C 767.2 245.4 767.8 246.8 767.8 248.3 L 767.8 314.4 C 767.8 316.5 766.6 318.4 764.6 319.3 C 764 319.7 763.2 319.8 762.5 319.8 M 578.2 138.8 L 757.1 302.4 L 757.1 250.7 L 634.8 138.8 L 578.2 138.8"/></g><g><path fill="#00a6ff" fill-rule="evenodd" clip-rule="evenodd" d="M 900.3 460.7 C 912.7 474 912 494.8 898.6 507.2 L 630.2 757.2 L 585.4 709 L 853.8 459 C 867.1 446.6 887.9 447.4 900.3 460.7 Z"/></g><g><path fill="#f2ac4a" fill-rule="evenodd" clip-rule="evenodd" d="M 630.2 757.2 L 552.1 784.9 L 585.3 709 L 630.2 757.2 Z"/></g><g><path fill="#002368" d="M 630.2 762.5 C 628.8 762.5 627.3 761.9 626.3 760.8 L 581.4 712.6 C 580.4 711.6 579.9 710.2 580 708.8 C 580.1 707.4 580.7 706.1 581.7 705.1 L 850.1 455.1 C 865.5 440.7 889.8 441.6 904.2 457 C 918.6 472.4 917.7 496.7 902.3 511.1 L 633.9 761.1 C 632.8 762.1 631.5 762.5 630.2 762.5 M 592.9 709.3 L 630.5 749.7 L 895 503.3 C 906.1 492.9 906.8 475.4 896.4 464.3 C 886 453.2 868.5 452.5 857.4 462.9 L 592.9 709.3"/></g><g><path fill="#002368" d="M 552.2 790.2 C 550.7 790.2 549.3 789.6 548.3 788.5 C 546.9 786.9 546.5 784.7 547.3 782.7 L 580.5 706.8 C 581.2 705.2 582.7 704 584.5 703.7 C 586.3 703.4 588.1 704 589.3 705.3 L 634.2 753.5 C 635.4 754.8 635.9 756.7 635.5 758.4 C 635.1 760.1 633.8 761.6 632.1 762.2 L 554 789.9 C 553.4 790.1 552.8 790.2 552.2 790.2 M 587 718.6 L 562 775.8 L 620.8 754.9 L 587 718.6"/></g><g><path fill="#f2ac4a" fill-rule="evenodd" clip-rule="evenodd" d="M 767.8 539.1 L 812.7 587.3 L 796.9 602 L 752 553.8 L 767.8 539.1 Z"/></g><g><path fill="#002368" d="M 796.6 607 C 796.5 607 796.5 607 796.4 607 C 795 606.9 793.7 606.3 792.7 605.3 L 749.3 558.7 C 747.3 556.5 747.4 553.2 749.6 551.2 L 765.4 536.5 C 766.4 535.5 767.8 535 769.2 535.1 C 770.6 535.2 771.9 535.8 772.9 536.8 L 816.3 583.4 C 818.3 585.6 818.2 588.9 816 590.9 L 800.2 605.6 C 799.2 606.5 797.9 607 796.6 607 M 760.7 555.3 L 796.8 594.1 L 804.8 586.7 L 768.7 547.9 L 760.7 555.3"/></g><g><path fill="#002368" d="M 879.9 486.7 L 824 538.8 C 821.8 540.8 818.5 540.7 816.5 538.5 C 814.5 536.3 814.6 533 816.8 531 L 872.7 478.9 C 874.9 476.9 878.2 477 880.2 479.2 C 882.1 481.3 882 484.6 879.9 486.7 M 827.6 542.7 C 823.3 546.7 816.5 546.5 812.5 542.2 C 808.5 537.9 808.7 531.1 813 527.1 C 817.3 523.1 824.1 523.3 828.1 527.6 C 832.1 531.9 831.9 538.6 827.6 542.7"/></g><g><path fill="#002368" d="M 563.2 779.6 C 561.8 779.6 560.3 779 559.3 777.9 C 557.3 775.7 557.4 772.4 559.6 770.4 L 604 729 C 606.2 727 609.5 727.1 611.5 729.3 C 613.5 731.5 613.4 734.8 611.2 736.8 L 566.8 778.1 C 565.8 779.1 564.5 779.6 563.2 779.6 Z"/></g><g><path fill="#002368" d="M 389.3 794.8 C 388.8 794.8 388.3 794.8 387.8 794.7 C 377.3 792.8 378.2 775.9 379.3 754.5 C 379.8 745.8 380.4 733.3 379.3 728.4 C 373.5 731.8 360.4 747.4 353.1 756.1 C 341.2 770.3 334.3 778.4 329.2 780.2 C 325.2 781.6 322.7 779.9 321.7 779.1 C 317.6 775.6 319 769.1 320.9 760.3 C 321.6 756.9 322.8 751.2 322.8 748.2 C 313.3 749.5 290.2 763.9 271.3 775.7 L 265.7 766.6 C 295.6 748 314.5 736.7 325.3 737.4 C 327.8 737.6 329.9 738.7 331.4 740.6 C 335 745.4 333.3 753.3 331.4 762.4 C 331.2 763.4 331 764.5 330.7 765.6 C 334.9 761.2 340.4 754.6 344.9 749.2 C 364.7 725.5 374.3 715.3 382.5 717.2 C 391.8 719.4 391.1 733.5 389.9 754.9 C 389.4 764.1 388.6 778.9 390.2 783.6 C 395.5 781.1 408.1 767 415.9 758.2 C 431.6 740.6 441.6 729.8 449.5 729.2 C 452.3 729 454.8 729.8 456.7 731.6 C 461.1 735.7 461.1 743.3 461.1 753 C 461.1 763 461 775.4 467.1 778.4 C 482.5 786.2 516.8 783 550 779.9 C 552.9 779.6 555.5 781.8 555.8 784.7 C 556.1 787.6 553.9 790.2 551 790.5 C 514.7 793.9 480.4 797.1 462.3 787.9 C 450.4 781.9 450.4 765.8 450.5 752.9 C 450.5 748.6 450.5 742.5 449.8 740 C 444.8 742 431.9 756.5 424 765.3 C 407.5 784 397.4 794.8 389.3 794.8 M 268.5 771.2"/></g><g><path fill="#002368" d="M 362.2 383.8 L 268.5 383.8 C 265.6 383.8 263.2 381.4 263.2 378.5 C 263.2 375.6 265.6 373.2 268.5 373.2 L 362.2 373.2 C 365.1 373.2 367.5 375.6 367.5 378.5 C 367.5 381.4 365.1 383.8 362.2 383.8 Z"/></g><g><path fill="#002368" d="M 574.6 383.8 L 403.5 383.8 C 400.6 383.8 398.2 381.4 398.2 378.5 C 398.2 375.6 400.6 373.2 403.5 373.2 L 574.6 373.2 C 577.5 373.2 579.9 375.6 579.9 378.5 C 579.9 381.4 577.5 383.8 574.6 383.8 Z"/></g><g><path fill="#002368" d="M 710.2 383.8 L 616.5 383.8 C 613.6 383.8 611.2 381.4 611.2 378.5 C 611.2 375.6 613.6 373.2 616.5 373.2 L 710.2 373.2 C 713.1 373.2 715.5 375.6 715.5 378.5 C 715.5 381.4 713.1 383.8 710.2 383.8 Z"/></g><g><path fill="#002368" d="M 710.4 443.8 L 268.5 443.8 C 265.6 443.8 263.2 441.4 263.2 438.5 C 263.2 435.6 265.6 433.2 268.5 433.2 L 710.4 433.2 C 713.3 433.2 715.7 435.6 715.7 438.5 C 715.7 441.4 713.3 443.8 710.4 443.8 Z"/></g><g><path fill="#002368" d="M 608.1 503.8 L 268.5 503.8 C 265.6 503.8 263.2 501.4 263.2 498.5 C 263.2 495.6 265.6 493.2 268.5 493.2 L 608.1 493.2 C 611 493.2 613.4 495.6 613.4 498.5 C 613.4 501.4 611 503.8 608.1 503.8 Z"/></g><g><path fill="#002368" d="M 662.1 563.8 L 268.5 563.8 C 265.6 563.8 263.2 561.4 263.2 558.5 C 263.2 555.6 265.6 553.2 268.5 553.2 L 662.1 553.2 C 665 553.2 667.4 555.6 667.4 558.5 C 667.4 561.4 665 563.8 662.1 563.8 Z"/></g><g><path fill="#002368" d="M 562 623.8 L 268.5 623.8 C 265.6 623.8 263.2 621.4 263.2 618.5 C 263.2 615.6 265.6 613.2 268.5 613.2 L 562 613.2 C 564.9 613.2 567.3 615.6 567.3 618.5 C 567.3 621.4 565 623.8 562 623.8 Z"/></g></g></g></svg>
