<?xml version="1.0" encoding="UTF-8" standalone="yes"?><svg id="图层_1" xmlns="http://www.w3.org/2000/svg" xmlns:xlink="http://www.w3.org/1999/xlink" version="1.2" baseProfile="tiny" x="0" y="0" width="256" height="256" viewBox="0 0 256 256"><defs/><defs><clipPath id="clip-path" clipPathUnits="userSpaceOnUse"><rect fill="none" x="24" y="24" width="208" height="208"/></clipPath></defs><g transform="matrix(1.23045,0,0,1.23045,-29.529,-29.5151)"><g clip-path="url(#clip-path)"><path fill="#f39700" d="M 156.64 228 C 101.424 243.802 43.8523 211.855 28.043 156.642 C 12.2338 101.428 44.1729 43.852 99.3843 28.0355 C 154.596 12.2191 212.176 44.1506 228 99.36 C 243.83 154.59 211.876 212.192 156.64 228 Z"/><path fill="#221815" d="M 135.52 52.08 C 154.52 83.58 183.84 108.24 215.01 127.35 C 183.83 146.62 156.06 172.61 136.63 203.79 L 117.91 203.92 C 137.34 173.7 160.78 147.41 189.82 127.53 C 160.49 107.8 135.73 81.53 116.49 52.22 L 135.52 52.08 Z"/><path fill="#221815" d="M 97.62 52.08 C 116.62 83.58 145.94 108.24 177.11 127.35 C 145.93 146.62 118.17 172.61 98.74 203.79 L 80 203.92 C 99.42 173.7 122.87 147.41 151.91 127.53 C 122.57 107.8 97.82 81.53 78.57 52.22 L 97.62 52.08 Z"/></g></g></svg>
