<?xml version="1.0" encoding="UTF-8" standalone="yes"?><svg xmlns="http://www.w3.org/2000/svg" xmlns:xlink="http://www.w3.org/1999/xlink" version="1.2" baseProfile="tiny" x="0" y="0" width="256" height="256" viewBox="0 0 256 256"><defs/><defs/><g transform="matrix(2.28571,0,0,2.28571,-1092.57,-722.286)"><path fill="#f9b134" fill-opacity="1" fill-rule="nonzero" stroke="none" d="M 563.336 404 L 558 404 L 558 324 L 563.336 324 L 563.336 404 Z"/><path fill="#f36436" fill-opacity="1" fill-rule="nonzero" stroke="none" d="M 574 404 L 568.668 404 L 568.668 324 L 574 324 L 574 404 Z"/><path fill="#f58535" fill-opacity="1" fill-rule="nonzero" stroke="none" d="M 570 404 L 562 404 L 562 324 L 570 324 L 570 404 Z"/><path fill="#efc7a5" fill-opacity="1" fill-rule="nonzero" stroke="none" d="M 558 404 L 574 404 L 566 428 L 558 404 M 558 404 Z"/><path fill="#4e4b4c" fill-opacity="1" fill-rule="nonzero" stroke="none" d="M 568.68 419.965 L 566 428 L 563.32 419.969 L 568.68 419.965 M 568.68 419.965 Z"/><path fill="#de6a69" fill-opacity="1" fill-rule="nonzero" stroke="none" d="M 558 324 L 558 318.355 C 558 317.055 559.055 316 560.355 316 L 571.645 316 C 572.945 316 574 317.055 574 318.355 L 574 324 L 558 324 Z"/><path fill="#e8e8e8" fill-opacity="1" fill-rule="nonzero" stroke="none" d="M 574 324 L 574 336 L 558 336 L 558 324 L 574 324 Z"/><path fill="#d3d2d2" fill-opacity="1" fill-rule="nonzero" stroke="none" d="M 574 328 L 574 332 L 558 332 L 558 328 L 574 328 Z"/><path fill="#d6ab59" fill-opacity="1" fill-rule="nonzero" stroke="none" d="M 494 428 L 494 316 L 558.664 428 L 494 428 M 537.879 416 L 506 360.785 L 506 416 L 537.879 416 M 537.879 416"/><path fill="#6e4223" fill-opacity="1" fill-rule="nonzero" stroke="none" d="M 498 424 L 494 424 L 494 423 L 498 423 L 498 424 Z"/><path fill="#6e4223" fill-opacity="1" fill-rule="nonzero" stroke="none" d="M 498 416 L 494 416 L 494 415 L 498 415 L 498 416 Z"/><path fill="#6e4223" fill-opacity="1" fill-rule="nonzero" stroke="none" d="M 498 408 L 494 408 L 494 407 L 498 407 L 498 408 Z"/><path fill="#6e4223" fill-opacity="1" fill-rule="nonzero" stroke="none" d="M 498 400 L 494 400 L 494 399 L 498 399 L 498 400 Z"/><path fill="#6e4223" fill-opacity="1" fill-rule="nonzero" stroke="none" d="M 498 392 L 494 392 L 494 391 L 498 391 L 498 392 Z"/><path fill="#6e4223" fill-opacity="1" fill-rule="nonzero" stroke="none" d="M 498 384 L 494 384 L 494 383 L 498 383 L 498 384 Z"/><path fill="#6e4223" fill-opacity="1" fill-rule="nonzero" stroke="none" d="M 498 376 L 494 376 L 494 375 L 498 375 L 498 376 Z"/><path fill="#6e4223" fill-opacity="1" fill-rule="nonzero" stroke="none" d="M 498 368 L 494 368 L 494 367 L 498 367 L 498 368 Z"/><path fill="#6e4223" fill-opacity="1" fill-rule="nonzero" stroke="none" d="M 498 360 L 494 360 L 494 359 L 498 359 L 498 360 Z"/><path fill="#6e4223" fill-opacity="1" fill-rule="nonzero" stroke="none" d="M 498 352 L 494 352 L 494 351 L 498 351 L 498 352 Z"/><path fill="#6e4223" fill-opacity="1" fill-rule="nonzero" stroke="none" d="M 498 344 L 494 344 L 494 343 L 498 343 L 498 344 Z"/><path fill="#6e4223" fill-opacity="1" fill-rule="nonzero" stroke="none" d="M 498 336 L 494 336 L 494 335 L 498 335 L 498 336 Z"/><path fill="#6e4223" fill-opacity="1" fill-rule="nonzero" stroke="none" d="M 498 328 L 494 328 L 494 327 L 498 327 L 498 328 Z"/></g></svg>
