<?xml version="1.0" encoding="UTF-8" standalone="yes"?><svg id="图层_1" xmlns="http://www.w3.org/2000/svg" xmlns:xlink="http://www.w3.org/1999/xlink" version="1.2" baseProfile="tiny" x="0" y="0" width="256" height="256" viewBox="0 0 256 256"><defs/><defs><clipPath id="clip-path" clipPathUnits="userSpaceOnUse"><rect class="cls-1" fill="none" x="0" y="0" width="256" height="256"/></clipPath></defs><g class="cls-2" clip-path="url(#clip-path)"><g id="å_ç_é__10741063189.æ_æ_"><g id="Group"><g id="Group_2"><g id="Group_3"><path id="Vector" fill="#333333" fill-opacity="1" d="M 129.51 256 C 57.71 256 0.67 199 0.67 129.51 C 0.67 57.71 57.71 0 129.51 0 C 198.63 0 255.33 57.71 255.33 129.51 C 255.33 199 198.63 256 129.51 256 M 129.51 24.49 C 72.81 24.49 24.83 72.49 24.83 129.49 C 24.83 187.2 72.83 232.16 129.51 232.16 C 186.19 232.16 231.17 187.16 231.17 129.49 C 231.17 72.47 186.21 24.49 129.51 24.49 M 165.75 138.9 L 102.33 177.82 L 102.33 180.82 L 96.63 180.82 C 90.63 180.82 84.55 174.82 84.55 168.75 L 84.55 87.57 C 84.55 81.57 90.55 75.49 96.63 75.49 C 99.63 75.49 102.33 78.49 102.33 78.49 L 165.75 117.75 C 171.45 120.75 171.45 123.75 171.45 129.49 C 171.45 132.53 171.45 135.55 165.75 138.9"/></g></g></g></g></g></svg>
