<?xml version="1.0" encoding="UTF-8" standalone="yes"?><svg id="图层_1" xmlns="http://www.w3.org/2000/svg" xmlns:xlink="http://www.w3.org/1999/xlink" version="1.2" baseProfile="tiny" x="0" y="0" width="256" height="256" viewBox="0 0 256 256"><defs/><defs/><g transform="matrix(1,0,0,1,-4.04e-07,-4.514e-07)"><g transform="matrix(0.312378,0,0,0.312378,-31.1753,-32.6216)"><path fill="#ffc861" d="M 336.83 798.36 L 156.91 798.36 C 149.126 798.338 142.822 792.034 142.8 784.25 L 164 162.16 C 164.022 154.376 170.326 148.072 178.11 148.05 L 316.84 148.05 C 324.643 148.044 330.978 154.357 331 162.16 L 351 784.25 C 350.978 792.057 344.637 798.371 336.83 798.36 Z"/><path fill="#281966" d="M 336.83 812.47 L 156.91 812.47 C 141.331 812.453 128.707 799.829 128.69 784.25 L 128.69 783.77 L 149.85 161.87 C 150.02 146.402 162.602 133.95 178.07 133.94 L 316.84 133.94 C 332.314 133.956 344.896 146.417 345.06 161.89 L 365.06 784.02 L 365.06 784.25 C 365.043 799.833 352.413 812.459 336.83 812.47 M 156.92 784.25 L 336.82 784.25 L 316.82 162.38 L 316.82 162.16 L 178.08 162.16 L 178.08 162.64 L 156.92 784.25"/><path fill="#ef6356" d="M 290.92 298.59 L 290.92 235.76 C 290.92 228 295.92 221.65 301.92 221.65 L 787.32 242.81 C 793.38 242.81 798.32 249.16 798.32 256.92 L 798.32 278.6 C 798.32 286.36 793.32 292.71 787.32 292.71 L 301.92 312.71 C 295.88 312.7 290.92 306.35 290.92 298.59 Z"/><path fill="#281966" d="M 302.19 325.16 L 301.93 325.16 C 288.99 325.16 278.46 313.24 278.46 298.59 L 278.46 235.76 C 278.46 221.1 288.99 209.18 301.93 209.18 L 302.47 209.18 L 787.67 230.34 C 800.46 230.54 810.81 242.39 810.81 256.91 L 810.81 278.6 C 810.81 293.13 800.45 304.98 787.64 305.17 L 302.19 325.16 M 303.62 234.2 C 303.464 234.705 303.387 235.231 303.39 235.76 L 303.39 298.59 C 303.385 299.12 303.466 299.646 303.63 300.15 L 785.63 280.3 C 785.829 279.756 785.927 279.18 785.92 278.6 L 785.92 256.92 C 785.927 256.337 785.829 255.758 785.63 255.21 L 303.62 234.2"/><rect fill="#d1dcff" x="613.77" y="663.36" width="267.36" height="208.27" rx="26.736" ry="26.0338"/><path fill="#281966" d="M 854.16 881.59 L 640.73 881.59 C 620.358 881.546 603.854 865.042 603.81 844.67 L 603.81 690.32 C 603.854 669.948 620.358 653.444 640.73 653.4 L 854.16 653.4 C 874.532 653.444 891.036 669.948 891.08 690.32 L 891.08 844.67 C 891.036 865.042 874.532 881.546 854.16 881.59 M 640.73 673.32 C 631.341 673.32 623.73 680.931 623.73 690.32 L 623.73 844.67 C 623.73 854.059 631.341 861.67 640.73 861.67 L 854.16 861.67 C 863.549 861.67 871.16 854.059 871.16 844.67 L 871.16 690.32 C 871.16 680.931 863.549 673.32 854.16 673.32 L 640.73 673.32"/><rect fill="#ffffff" x="683.58" y="677.87" width="119.17" height="119.17"/><path fill="#281966" d="M 811.74 806 L 674.59 806 L 674.59 668.88 L 811.74 668.88 L 811.74 806 M 692.58 788 L 793.76 788 L 793.76 686.87 L 692.58 686.87 L 692.58 788"/><polygon fill="#ef6356" points="802.22,677.03 586.72,677.03 637.39,553.59 790.3,553.59 802.14,676.54 802.22,677.03"/><path fill="#281966" d="M 814.16 687 L 588.71 687 C 584.944 687.002 581.425 685.127 579.327 681.999 C 577.229 678.871 576.829 674.904 578.26 671.42 L 630.71 543.64 L 799.35 543.64 L 812 675.24 L 814.16 687 M 601.58 667.07 L 791.22 667.07 L 781.22 563.55 L 644.07 563.55 L 601.58 667.07"/><path fill="#ef6356" d="M 694.53 676.54 C 694.53 706.137 670.537 730.13 640.94 730.13 C 611.343 730.13 587.35 706.137 587.35 676.54 L 694.53 676.54 Z"/><path fill="#281966" d="M 640 740.09 C 605.13 739.56 577.44 710.45 577.44 675.58 C 577.44 670.609 581.469 666.58 586.44 666.58 L 704.49 666.58 L 704.49 676.58 C 704.459 693.585 697.624 709.87 685.508 721.802 C 673.391 733.734 657.003 740.32 640 740.09 M 598.5 686.5 C 603.106 706.254 620.716 720.23 641 720.23 C 661.284 720.23 678.894 706.254 683.5 686.5 L 598.5 686.5"/><path fill="#ffc861" d="M 802.14 676.54 C 802.404 695.862 792.247 713.831 775.556 723.569 C 758.865 733.307 738.225 733.307 721.534 723.569 C 704.843 713.831 694.686 695.862 694.95 676.54 L 802.14 676.54 Z"/><path fill="#281966" d="M 748.54 740.1 C 713.461 740.05 685.039 711.619 685 676.54 L 685 666.54 L 812.1 666.54 L 812.1 676.54 C 812.061 711.627 783.627 740.061 748.54 740.1 M 706.06 686.5 C 710.666 706.254 728.276 720.23 748.56 720.23 C 768.844 720.23 786.454 706.254 791.06 686.5 L 706.06 686.5"/><path fill="#ef6356" d="M 909.32 676.54 C 909.32 706.137 885.327 730.13 855.73 730.13 C 826.133 730.13 802.14 706.137 802.14 676.54 L 909.32 676.54 Z"/><path fill="#281966" d="M 854.74 740.09 C 819.87 739.56 792.18 710.45 792.18 675.58 L 792.18 666.58 L 909.32 666.58 C 914.843 666.58 919.32 671.057 919.32 676.58 C 919.29 693.601 912.442 709.9 900.306 721.835 C 888.17 733.769 871.759 740.344 854.74 740.09 M 813.24 686.5 C 817.846 706.254 835.456 720.23 855.74 720.23 C 876.024 720.23 893.634 706.254 898.24 686.5 L 813.24 686.5"/><polygon fill="#ffc861" points="909.32,677.03 802.22,677.03 802.14,676.54 790.3,553.59 858.65,553.59 909.32,677.03"/><path fill="#281966" d="M 908.74 687 L 793.91 687 L 792.22 677.5 L 779.34 543.63 L 865.34 543.63 L 918.34 672.71 C 919.651 675.908 919.281 679.548 917.354 682.417 C 915.427 685.286 912.196 687.005 908.74 687 M 811.23 667.08 L 894.46 667.08 L 852 563.55 L 801.27 563.55 L 811.23 667.08"/><polygon fill="#ffc861" points="586.72,677.03 693.82,677.03 693.9,676.54 705.74,553.59 637.39,553.59 586.72,677.03"/><path fill="#281966" d="M 702.14 687 L 590 687 C 585.94 687.002 582.146 684.978 579.886 681.606 C 577.625 678.233 577.195 673.955 578.74 670.2 L 630.74 543.64 L 716.74 543.64 L 703.62 678.8 L 702.14 687 M 601.58 667.07 L 684.81 667.07 L 694.81 563.55 L 644.11 563.55 L 601.58 667.07"/><rect fill="#ef6356" x="115.91" y="800.74" width="250.49" height="77.62" rx="13.777" ry="13.9716"/><path fill="#281966" d="M 352.29 894.44 L 130 894.44 C 113.33 894.418 99.822 880.91 99.8 864.24 L 99.8 814.85 C 99.822 798.18 113.33 784.672 130 784.65 L 352.29 784.65 C 368.96 784.672 382.468 798.18 382.49 814.85 L 382.49 864.24 C 382.468 880.91 368.96 894.418 352.29 894.44 M 132 862.27 L 350.31 862.27 L 350.31 816.82 L 132 816.82 L 132 862.27"/><path fill="#281966" d="M 790.09 256.27 C 789.22 256.269 788.352 256.178 787.5 256 L 316.19 158.89 C 309.455 157.471 305.146 150.86 306.565 144.125 C 307.984 137.39 314.595 133.081 321.33 134.5 L 792.65 231.61 C 798.911 232.909 803.172 238.737 802.511 245.097 C 801.851 251.457 796.484 256.284 790.09 256.27 Z"/><path fill="#281966" d="M 753.66 455.66 C 745.867 455.66 739.55 449.343 739.55 441.55 L 739.55 299.6 C 739.55 291.807 745.867 285.49 753.66 285.49 C 761.453 285.49 767.77 291.807 767.77 299.6 L 767.77 441.6 C 767.742 449.373 761.433 455.66 753.66 455.66 Z"/><path fill="#281966" d="M 753.66 534.55 C 723.961 534.517 699.893 510.449 699.86 480.75 C 699.86 472.957 706.177 466.64 713.97 466.64 C 721.763 466.64 728.08 472.957 728.08 480.75 C 728.074 494.879 739.525 506.336 753.653 506.34 C 767.782 506.344 779.238 494.892 779.24 480.763 C 779.242 466.635 767.789 455.18 753.66 455.18 C 745.867 455.18 739.55 448.863 739.55 441.07 C 739.55 433.277 745.867 426.96 753.66 426.96 C 783.084 427.361 806.727 451.328 806.727 480.755 C 806.727 510.182 783.084 534.149 753.66 534.55 Z"/></g></g></svg>
