<?xml version="1.0" encoding="UTF-8" standalone="yes"?><svg id="图层_1" xmlns="http://www.w3.org/2000/svg" xmlns:xlink="http://www.w3.org/1999/xlink" version="1.2" baseProfile="tiny" x="0" y="0" width="256" height="256" viewBox="0 0 256 256"><defs/><g transform="matrix(1,0,0,1,-2.94e-07,-6.9e-08)"><g transform="matrix(0.3452,0,0,0.3452,-46.3258,-48.9148)"><g><path fill="#918d94" fill-rule="evenodd" clip-rule="evenodd" d="M 139 304.4 C 139 294.8 146.8 287 156.4 287 L 852.6 287 C 862.2 287 870 294.8 870 304.4 L 870 681.6 C 870 691.2 862.2 699 852.6 699 L 156.4 699 C 146.8 699 139 691.2 139 681.6 L 139 304.4 Z"/></g><g><path fill="#002368" d="M 853.1 704.8 L 156.9 704.8 C 144.4 704.8 134.2 694.6 134.2 682.1 L 134.2 304.9 C 134.2 292.4 144.4 282.2 156.9 282.2 L 853.1 282.2 C 865.6 282.2 875.8 292.4 875.8 304.9 L 875.8 682.1 C 875.8 694.6 865.6 704.8 853.1 704.8 M 156.9 292.8 C 150.2 292.8 144.8 298.2 144.8 304.9 L 144.8 682.1 C 144.8 688.8 150.2 694.2 156.9 694.2 L 853.1 694.2 C 859.8 694.2 865.2 688.8 865.2 682.1 L 865.2 304.9 C 865.2 298.2 859.8 292.8 853.1 292.8 L 156.9 292.8"/></g><g><path fill="#e9e8ea" fill-rule="evenodd" clip-rule="evenodd" d="M 167 336 C 167 326.6 174.6 319 184 319 L 825 319 C 834.4 319 842 326.6 842 336 L 842 631 C 842 640.4 834.4 648 825 648 L 184 648 C 174.6 648 167 640.4 167 631 L 167 336 Z"/></g><g><path fill="#002368" d="M 825.5 653.8 L 184.5 653.8 C 172.2 653.8 162.2 643.8 162.2 631.5 L 162.2 336.5 C 162.2 324.2 172.2 314.2 184.5 314.2 L 825.5 314.2 C 837.8 314.2 847.8 324.2 847.8 336.5 L 847.8 631.5 C 847.8 643.8 837.8 653.8 825.5 653.8 M 184.5 324.8 C 178.1 324.8 172.8 330 172.8 336.5 L 172.8 631.5 C 172.8 637.9 178 643.2 184.5 643.2 L 825.5 643.2 C 831.9 643.2 837.2 638 837.2 631.5 L 837.2 336.5 C 837.2 330.1 832 324.8 825.5 324.8 L 184.5 324.8"/></g><g><path fill="#002368" fill-rule="evenodd" clip-rule="evenodd" d="M 490 673.5 C 490 665.5 496.5 659 504.5 659 C 512.5 659 519 665.5 519 673.5 C 519 681.5 512.5 688 504.5 688 C 496.5 688 490 681.5 490 673.5 Z"/></g><g><path fill="#918d94" fill-rule="evenodd" clip-rule="evenodd" d="M 417 831 L 450 699 L 559 699 L 592 831 L 417 831 Z"/></g><g><path fill="#002368" d="M 592.5 836.8 L 417.5 836.8 C 415.9 836.8 414.3 836 413.3 834.7 C 412.3 833.4 411.9 831.7 412.3 830.1 L 445.3 698.1 C 445.9 695.7 448 694.1 450.5 694.1 L 559.5 694.1 C 561.9 694.1 564.1 695.8 564.7 698.1 L 597.7 830.1 C 598.1 831.7 597.7 833.4 596.7 834.7 C 595.7 836.1 594.1 836.8 592.5 836.8 M 424.3 826.2 L 585.6 826.2 L 555.3 704.9 L 454.7 704.9 L 424.3 826.2"/></g><g><path fill="#002368" d="M 685.9 836.8 L 324.5 836.8 C 321.6 836.8 319.2 834.4 319.2 831.5 C 319.2 828.6 321.6 826.2 324.5 826.2 L 685.9 826.2 C 688.8 826.2 691.2 828.6 691.2 831.5 C 691.2 834.4 688.8 836.8 685.9 836.8 Z"/></g><g><path fill="#fceedb" fill-rule="evenodd" clip-rule="evenodd" d="M 246.8 193 L 762.2 193 C 772 193 780 201 780 210.8 L 780 648 L 229 648 L 229 210.8 C 229 201 237 193 246.8 193 Z"/></g><g><path fill="#002368" d="M 781.6 652.8 L 229.6 652.8 C 226.7 652.8 224.3 650.4 224.3 647.5 L 224.3 211.3 C 224.2 205.2 226.6 199.4 230.9 195 C 235.3 190.6 241.1 188.2 247.3 188.2 L 763.8 188.2 C 776.6 188.2 786.9 198.6 786.9 211.3 L 786.9 647.5 C 786.9 650.4 784.5 652.8 781.6 652.8 M 234.9 642.2 L 776.2 642.2 L 776.2 211.3 C 776.2 204.4 770.6 198.8 763.7 198.8 L 247.3 198.8 C 244 198.8 240.8 200.1 238.5 202.5 C 236.2 204.9 234.9 208 234.9 211.2 L 234.9 642.2"/></g><g><path fill="#f2ac4a" fill-rule="evenodd" clip-rule="evenodd" d="M 370 291.8 C 347.5 291.8 329.3 310 329.3 332.5 C 329.3 355 347.5 373.2 370 373.2 C 392.5 373.2 410.7 355 410.7 332.5 C 410.7 310 392.5 291.8 370 291.8 M 355.6 239 L 387 239 L 392.3 260.1 L 399.2 262.2 L 408.2 266.8 L 427.3 256.2 L 448.7 279.2 L 437 297.2 L 438.3 299.5 L 442.9 312.5 L 461 317 L 461 348.4 L 443.1 352.9 L 442.5 355.5 L 436 370.5 L 446.6 388.2 L 424.4 410.4 L 406.1 399.4 L 399.2 403.3 L 391.5 405.7 L 386.5 425.9 L 355 425.9 L 350.2 406.6 L 339.6 403.3 L 332.7 399.5 L 318.5 409.3 L 294.9 388.6 L 303.6 371.7 L 303 370.9 C 300.2 366.1 298 360.9 296.3 355.5 L 295.6 352.6 L 279 348.5 L 279 317.1 L 295.7 312.9 L 300.4 299.6 L 303.8 293.7 L 294.5 279.4 L 315.9 256.4 L 332.9 265.8 L 339.6 262.3 L 350.7 258.9 L 355.6 239"/></g><g><path fill="#002368" d="M 387 431.8 L 355.6 431.8 C 353.2 431.8 351 430.1 350.4 427.8 L 346.3 411.4 L 338.6 409 C 338.3 408.9 337.9 408.8 337.6 408.6 L 333.6 406.4 L 322.1 414.3 C 320.1 415.7 317.4 415.5 315.6 413.9 L 292 393.2 C 290.2 391.6 289.7 388.9 290.8 386.8 L 298.1 372.6 C 295.6 368.1 293.5 363.1 291.8 357.7 C 291.8 357.7 291.8 357.6 291.8 357.6 L 278.3 354.3 C 275.9 353.7 274.2 351.6 274.2 349.1 L 274.2 317.7 C 274.2 315.3 275.9 313.1 278.2 312.5 L 292.1 309 L 295.8 298.4 C 295.9 298.1 296 297.8 296.2 297.5 L 298 294.4 L 290.5 282.8 C 289.2 280.7 289.4 278.1 291.1 276.3 L 312.5 253.3 C 314.2 251.5 316.8 251.1 319 252.3 L 333.5 260.3 L 337.7 258.1 C 338 257.9 338.3 257.8 338.6 257.7 L 346.8 255.2 L 350.9 238.2 C 351.5 235.8 353.6 234.1 356.1 234.1 L 387.5 234.1 C 389.9 234.1 392.1 235.8 392.7 238.1 L 397.3 256.3 L 401.3 257.5 C 401.6 257.6 401.9 257.7 402.2 257.9 L 408.7 261.2 L 425.3 252 C 427.4 250.8 430.1 251.2 431.8 253 L 453.2 276 C 454.9 277.8 455.1 280.5 453.8 282.5 L 443.8 297.8 C 443.8 297.9 443.9 298 443.9 298.1 L 447.5 308.4 L 462.8 312.2 C 465.2 312.8 466.8 314.9 466.8 317.4 L 466.8 349 C 466.8 351.4 465.1 353.6 462.8 354.2 L 448 357.9 C 448 358 447.9 358.1 447.9 358.2 L 442.5 370.7 L 451.7 386.1 C 453 388.2 452.6 390.9 450.9 392.6 L 428.7 414.8 C 427 416.5 424.3 416.9 422.2 415.6 L 406.6 406.2 L 402.4 408.6 C 402.1 408.8 401.7 408.9 401.4 409 L 396.6 410.5 L 392.3 427.8 C 391.6 430.2 389.5 431.8 387 431.8 M 359.8 421.2 L 382.9 421.2 L 386.9 405.1 C 387.3 403.3 388.7 401.8 390.5 401.3 L 397.7 399.1 L 404.1 395.5 C 405.8 394.6 407.8 394.6 409.5 395.6 L 424.2 404.5 L 440.5 388.2 L 432 374.1 C 431.1 372.6 431 370.8 431.7 369.2 L 438 354.6 L 438.5 352.5 C 439 350.5 440.5 349 442.4 348.5 L 456.3 345 L 456.3 321.8 L 442.2 318.3 C 440.5 317.9 439.1 316.6 438.5 314.9 L 434.1 302.3 L 433 300.4 C 432 298.7 432.1 296.5 433.2 294.9 L 442.6 280.4 L 426.9 263.5 L 411.4 272.1 C 409.8 273 408 273 406.4 272.2 L 397.8 267.8 L 391.4 265.8 C 389.6 265.3 388.2 263.8 387.8 262 L 383.5 244.9 L 360.5 244.9 L 356.7 260.8 C 356.3 262.6 354.9 264.1 353.1 264.7 L 342.5 268 L 336.2 271.3 C 334.6 272.1 332.7 272.1 331.2 271.2 L 317.8 263.8 L 302.1 280.7 L 309.1 291.5 C 310.2 293.2 310.3 295.3 309.2 297.1 L 306 302.6 L 301.5 315.4 C 300.9 317.1 299.5 318.4 297.8 318.8 L 285.1 322 L 285.1 345.1 L 297.6 348.2 C 299.5 348.7 301 350.2 301.5 352.1 L 302.2 354.8 C 303.8 359.9 305.8 364.6 308.2 368.7 L 308.6 369.2 C 309.8 370.8 310 373 309.1 374.8 L 302.3 388 L 319.6 403.2 L 330.4 395.8 C 332.1 394.7 334.2 394.5 336 395.5 L 342.4 399 L 352.5 402.1 C 354.3 402.7 355.6 404.1 356.1 405.9 L 359.8 421.2 M 370.5 379 C 345.1 379 324.5 358.3 324.5 333 C 324.5 307.7 345.2 287 370.5 287 C 395.8 287 416.5 307.7 416.5 333 C 416.5 358.3 395.9 379 370.5 379 M 370.5 297.6 C 351 297.6 335.1 313.5 335.1 333 C 335.1 352.5 351 368.4 370.5 368.4 C 390 368.4 405.9 352.5 405.9 333 C 405.9 313.5 390 297.6 370.5 297.6"/></g><g><path fill="#002368" d="M 636.4 273.8 L 508.5 273.8 C 505.6 273.8 503.2 271.4 503.2 268.5 C 503.2 265.6 505.6 263.2 508.5 263.2 L 636.4 263.2 C 639.3 263.2 641.7 265.6 641.7 268.5 C 641.7 271.4 639.3 273.8 636.4 273.8 Z"/></g><g><path fill="#002368" d="M 737.7 320.8 L 508.5 320.8 C 505.6 320.8 503.2 318.4 503.2 315.5 C 503.2 312.6 505.6 310.2 508.5 310.2 L 737.7 310.2 C 740.6 310.2 743 312.6 743 315.5 C 743 318.4 740.6 320.8 737.7 320.8 Z"/></g><g><path fill="#002368" d="M 684.8 367.8 L 508.5 367.8 C 505.6 367.8 503.2 365.4 503.2 362.5 C 503.2 359.6 505.6 357.2 508.5 357.2 L 684.8 357.2 C 687.7 357.2 690.1 359.6 690.1 362.5 C 690.1 365.4 687.7 367.8 684.8 367.8 Z"/></g><g><path fill="#002368" d="M 737.7 414.8 L 508.5 414.8 C 505.6 414.8 503.2 412.4 503.2 409.5 C 503.2 406.6 505.6 404.2 508.5 404.2 L 737.7 404.2 C 740.6 404.2 743 406.6 743 409.5 C 743 412.4 740.6 414.8 737.7 414.8 Z"/></g><g><path fill="#002368" d="M 550.7 487.8 L 279.5 487.8 C 276.6 487.8 274.2 485.4 274.2 482.5 C 274.2 479.6 276.6 477.2 279.5 477.2 L 550.7 477.2 C 553.6 477.2 556 479.6 556 482.5 C 556 485.4 553.6 487.8 550.7 487.8 Z"/></g><g><path fill="#002368" d="M 478.6 542.8 L 279.5 542.8 C 276.6 542.8 274.2 540.4 274.2 537.5 C 274.2 534.6 276.6 532.2 279.5 532.2 L 478.6 532.2 C 481.5 532.2 483.9 534.6 483.9 537.5 C 483.9 540.4 481.5 542.8 478.6 542.8 Z"/></g><g><path fill="#002368" d="M 519.3 597.8 L 279.5 597.8 C 276.6 597.8 274.2 595.4 274.2 592.5 C 274.2 589.6 276.6 587.2 279.5 587.2 L 519.3 587.2 C 522.2 587.2 524.6 589.6 524.6 592.5 C 524.6 595.4 522.2 597.8 519.3 597.8 Z"/></g><g><path fill="#00a6ff" fill-rule="evenodd" clip-rule="evenodd" d="M 839.8 387.8 C 848.5 397.2 848 411.8 838.6 420.5 L 649.8 596.4 L 618.2 562.5 L 807 386.6 C 816.5 377.9 831.1 378.4 839.8 387.8 Z"/></g><g><path fill="#f2ac4a" fill-rule="evenodd" clip-rule="evenodd" d="M 649.8 596.4 L 594.9 615.9 L 618.2 562.5 L 649.8 596.4 Z"/></g><g><path fill="#002368" d="M 649.8 601.7 C 648.4 601.7 646.9 601.1 645.9 600 L 614.3 566.1 C 613.3 565.1 612.8 563.7 612.9 562.3 C 612.9 560.9 613.6 559.5 614.6 558.6 L 803.4 382.7 C 815 372 833.1 372.7 843.7 384.2 C 848.9 389.8 851.6 397 851.3 404.6 C 851 412.2 847.8 419.2 842.2 424.4 L 653.4 600.3 C 652.4 601.3 651.1 601.7 649.8 601.7 M 625.7 562.8 L 650 588.9 L 835 416.6 C 842.2 409.9 842.6 398.6 835.9 391.4 C 829.3 384.2 817.9 383.8 810.6 390.5 L 625.7 562.8"/></g><g><path fill="#002368" d="M 594.9 621.2 C 593.4 621.2 592 620.6 591 619.5 C 589.6 617.9 589.2 615.7 590 613.7 L 613.3 560.3 C 614 558.7 615.5 557.5 617.3 557.2 C 619.1 556.9 620.9 557.5 622.1 558.8 L 653.7 592.7 C 654.9 594 655.4 595.9 655 597.6 C 654.6 599.3 653.3 600.8 651.6 601.4 L 596.7 620.9 C 596.1 621.1 595.5 621.2 594.9 621.2 M 619.8 572.1 L 604.7 606.8 L 640.4 594.1 L 619.8 572.1"/></g><g><path fill="#f2ac4a" fill-rule="evenodd" clip-rule="evenodd" d="M 746.6 443 L 778.2 476.9 L 767.1 487.2 L 735.5 453.3 L 746.6 443 Z"/></g><g><path fill="#002368" d="M 766.8 492.2 C 765.4 492.2 763.9 491.6 762.9 490.5 L 732.4 457.7 C 731.4 456.7 730.9 455.3 731 453.9 C 731.1 452.5 731.7 451.1 732.7 450.2 L 743.8 439.9 C 746 437.9 749.3 438 751.3 440.2 L 781.8 473 C 782.8 474 783.3 475.4 783.2 476.8 C 783.1 478.2 782.5 479.6 781.5 480.5 L 770.4 490.8 C 769.4 491.8 768.1 492.2 766.8 492.2 M 743.8 454.4 L 767 479.4 L 770.3 476.4 L 747.1 451.4 L 743.8 454.4"/></g><g><path fill="#002368" d="M 826.5 407.2 L 787.2 443.8 C 785 445.8 781.7 445.7 779.7 443.5 C 777.7 441.3 777.8 438 780 436 L 819.3 399.4 C 821.5 397.4 824.8 397.5 826.8 399.7 C 828.8 401.8 828.7 405.2 826.5 407.2 M 790.8 447.8 C 786.5 451.8 779.7 451.6 775.7 447.3 C 771.7 443 771.9 436.2 776.2 432.2 C 780.5 428.2 787.3 428.4 791.3 432.7 C 795.3 437 795.1 443.8 790.8 447.8"/></g></g></g></svg>
